<?xml version="1.0" encoding="UTF-8" standalone="no"?>
<svg
   version="1.0"
   width="381pt"
   height="381pt"
   viewBox="0 0 381 381"
   preserveAspectRatio="xMidYMid"
   id="svg307"
   sodipodi:docname="conicet.svg"
   xml:space="preserve"
   inkscape:version="1.2.2 (b0a8486541, 2022-12-01)"
   xmlns:inkscape="http://www.inkscape.org/namespaces/inkscape"
   xmlns:sodipodi="http://sodipodi.sourceforge.net/DTD/sodipodi-0.dtd"
   xmlns="http://www.w3.org/2000/svg"
   xmlns:svg="http://www.w3.org/2000/svg"><defs
     id="defs311" /><sodipodi:namedview
     id="namedview309"
     pagecolor="#ffffff"
     bordercolor="#000000"
     borderopacity="0.25"
     inkscape:showpageshadow="2"
     inkscape:pageopacity="0.0"
     inkscape:pagecheckerboard="0"
     inkscape:deskcolor="#d1d1d1"
     inkscape:document-units="pt"
     showgrid="false"
     inkscape:zoom="0.79609264"
     inkscape:cx="-162.66951"
     inkscape:cy="53.385746"
     inkscape:window-width="1866"
     inkscape:window-height="1044"
     inkscape:window-x="0"
     inkscape:window-y="0"
     inkscape:window-maximized="1"
     inkscape:current-layer="svg307" /><metadata
     id="metadata303">
Created by potrace 1.16, written by Peter Selinger 2001-2019
</metadata><g
     transform="matrix(0.1,0,0,-0.1,0,132)"
     fill="#000000"
     stroke="none"
     id="g305" /><path
     style="fill:#c9d9eb;stroke-width:0.98703"
     d="m 278.14449,256.24276 c 0.68974,-0.29454 1.51387,-0.25832 1.83137,0.0804 0.3175,0.33881 -0.24685,0.57979 -1.25409,0.53552 l -1.83137,-0.0804 z M 69.846639,250.12512 c 0.689748,-0.29453 1.513862,-0.25831 1.831366,0.0805 0.317502,0.33882 -0.246837,0.57979 -1.254087,0.53552 l -1.831365,-0.0804 z M 328.96486,235.01774 c 1.78275,-1.96274 3.45634,-3.56862 3.71911,-3.56862 0.26276,0 -0.98087,1.60588 -2.76361,3.56862 -1.78274,1.96274 -3.45634,3.56862 -3.7191,3.56862 -0.26276,0 0.98086,-1.60588 2.7636,-3.56862 z m -14.56015,-2.25054 c 1.18855,-0.24387 2.90844,-0.23462 3.82198,0.0206 0.91354,0.2552 -0.059,0.45474 -2.161,0.44343 -2.10209,-0.0113 -2.84953,-0.22013 -1.66098,-0.464 z M 82.208352,230.77386 c 0.656903,-0.28285 1.731835,-0.28285 2.388737,0 0.656903,0.28284 0.119437,0.51427 -1.194368,0.51427 -1.313805,0 -1.851271,-0.23143 -1.194369,-0.51427 z m 14.332421,0 c 0.656903,-0.28285 1.731834,-0.28285 2.388737,0 0.656903,0.28284 0.119437,0.51427 -1.194368,0.51427 -1.313806,0 -1.851271,-0.23143 -1.194369,-0.51427 z M 44.048282,156.3214 c 0.689748,-0.29453 1.513862,-0.25831 1.831365,0.0805 0.317502,0.33881 -0.246837,0.57979 -1.254087,0.53552 l -1.831365,-0.0805 z m 41.982049,-28.57202 c 1.182425,-0.24302 3.117302,-0.24302 4.299727,0 1.182424,0.24303 0.214986,0.44187 -2.149864,0.44187 -2.364849,0 -3.332287,-0.19884 -2.149863,-0.44187 z"
     id="path339" /><path
     style="fill:#f2d9a3;stroke-width:0.98703"
     d="m 296.29889,228.71341 c 0.68974,-0.29454 1.51387,-0.25832 1.83137,0.0804 0.3175,0.33882 -0.24685,0.57979 -1.25409,0.53552 l -1.83137,-0.0805 z m 9.01748,-7.14358 c 0.91966,-0.25646 2.42457,-0.25646 3.34423,0 0.91967,0.25646 0.16721,0.46629 -1.67211,0.46629 -1.83933,0 -2.59178,-0.20983 -1.67212,-0.46629 z m 15.28792,-1.01961 c 0.91966,-0.25646 2.42456,-0.25646 3.34423,0 0.91966,0.25646 0.16721,0.46629 -1.67212,0.46629 -1.83933,0 -2.59178,-0.20983 -1.67211,-0.46629 z m 15.04904,-0.34876 c 0,-0.54318 0.64496,-0.98761 1.43324,-0.98761 0.78828,0 1.43324,0.18032 1.43324,0.40072 0,0.22039 -0.64496,0.66482 -1.43324,0.9876 -0.78828,0.32279 -1.43324,0.14247 -1.43324,-0.40071 z m -32.96457,-16.28169 c 5.2355,-5.60783 9.71828,-10.19606 9.96172,-10.19606 0.82013,0 -17.59594,20.11572 -18.54325,20.25463 -0.51566,0.0756 3.34603,-4.45074 8.58153,-10.05857 z m -38.21979,-7.13724 c 0.32479,-0.56078 0.78014,-1.01961 1.01189,-1.01961 0.23174,0 0.42135,0.45883 0.42135,1.01961 0,0.56078 -0.45535,1.0196 -1.01188,1.0196 -0.55654,0 -0.74615,-0.45882 -0.42136,-1.0196 z m -36.90843,-2.80392 -1.31136,-1.78431 1.67212,1.39936 c 1.59161,1.33198 2.09777,2.16926 1.31136,2.16926 -0.19841,0 -0.95086,-0.80294 -1.67212,-1.78431 z m 58.40706,-1.78431 c 1.23426,-1.40195 2.45909,-2.54901 2.72185,-2.54901 0.26276,0 -0.53209,1.14706 -1.76635,2.54901 -1.23426,1.40196 -2.45909,2.54902 -2.72185,2.54902 -0.26276,0 0.53209,-1.14706 1.76635,-2.54902 z m -12.13511,-3.56862 c 0,-3.0843 0.17913,-4.34606 0.39805,-2.80391 0.21894,1.54215 0.21894,4.06568 0,5.60783 -0.21892,1.54215 -0.39805,0.28039 -0.39805,-2.80392 z m -18.36528,-0.59477 0.0754,-1.95424 0.50184,1.33823 c 0.27601,0.73603 0.24208,1.61544 -0.0754,1.95425 -0.3175,0.3388 -0.54333,-0.2634 -0.50184,-1.33824 z m -38.83309,-4.74222 c -1.5435,-1.81377 -1.91153,-2.50101 -0.81784,-1.52718 1.09369,0.97383 2.27611,1.54018 2.62761,1.25857 0.3515,-0.28162 0.42782,-0.21013 0.16963,0.15886 -0.25821,0.36899 0.01,1.28664 0.59474,2.03921 2.15587,2.77196 0.14241,1.26276 -2.57414,-1.92946 z m 37.87759,-3.41462 0.0754,-1.95424 0.50185,1.33823 c 0.27601,0.73603 0.24207,1.61544 -0.0754,1.95424 -0.3175,0.33881 -0.54333,-0.2634 -0.50185,-1.33823 z m 42.44408,-0.42484 c 0.95119,-1.12156 1.94441,-2.03921 2.20718,-2.03921 0.26276,0 -0.3005,0.91765 -1.25168,2.03921 -0.95119,1.12157 -1.94442,2.03922 -2.20718,2.03922 -0.26276,0 0.3005,-0.91765 1.25168,-2.03922 z m -43.39957,-7.732 0.0754,-1.95425 0.50184,1.33823 c 0.27602,0.73603 0.24208,1.61544 -0.0754,1.95425 -0.31751,0.3388 -0.54333,-0.2634 -0.50184,-1.33823 z m 52.95452,-3.48366 c 0.32479,-0.56078 0.78014,-1.0196 1.01189,-1.0196 0.23174,0 0.42135,0.45882 0.42135,1.0196 0,0.56079 -0.45535,1.01961 -1.01189,1.01961 -0.55653,0 -0.74614,-0.45882 -0.42135,-1.01961 z m -19.1099,-3.05881 c -0.32479,-0.56079 -0.13518,-1.01961 0.42136,-1.01961 0.55654,0 1.01189,0.45882 1.01189,1.01961 0,0.56078 -0.18961,1.0196 -0.42136,1.0196 -0.23174,0 -0.68709,-0.45882 -1.01189,-1.0196 z m -56.85193,-1.07978 c 0,-0.59388 0.42997,-0.79622 0.95549,-0.44963 0.52553,0.34658 0.9555,0.83248 0.9555,1.07978 0,0.24729 -0.42997,0.44963 -0.9555,0.44963 -0.52552,0 -0.95549,-0.48591 -0.95549,-1.07978 z m 21.97638,-0.44963 c 0,-0.84118 0.41648,-1.52941 0.92551,-1.52941 0.50902,0 0.67801,0.68823 0.37552,1.52941 -0.3025,0.84117 -0.71897,1.52941 -0.92551,1.52941 -0.20653,0 -0.37552,-0.68824 -0.37552,-1.52941 z m 19.81707,-3.31372 c -0.25157,-2.10294 -0.0836,-4.2594 0.37321,-4.79215 0.48141,-0.56141 0.8306,1.04603 0.8306,3.82352 0,5.76292 -0.57495,6.22555 -1.20381,0.96863 z"
     id="path337" /><path
     style="fill:#b0c8e3;stroke-width:0.98703"
     d="m 274.26279,256.264 c 0.6569,-0.28285 1.73184,-0.28285 2.38874,0 0.6569,0.28284 0.11944,0.51427 -1.19437,0.51427 -1.3138,0 -1.85127,-0.23143 -1.19437,-0.51427 z M 74.086647,250.09133 c 1.445186,-0.23362 3.810035,-0.23362 5.255221,0 1.445186,0.23362 0.262761,0.42476 -2.62761,0.42476 -2.890372,0 -4.072797,-0.19114 -2.627611,-0.42476 z m 236.544663,-17.2995 c 0.68974,-0.29454 1.51387,-0.25832 1.83137,0.0804 0.3175,0.33881 -0.24684,0.57978 -1.25409,0.53551 l -1.83137,-0.0804 z m 9.55495,0 c 0.68974,-0.29454 1.51386,-0.25832 1.83137,0.0804 0.3175,0.33881 -0.24685,0.57978 -1.25409,0.53551 l -1.83137,-0.0804 z m -296.592743,-2.61722 -1.820206,-2.29411 2.149863,1.94234 c 1.182425,1.06828 2.149863,2.10063 2.149863,2.29411 0,0.81594 -0.768976,0.21356 -2.47952,-1.94234 z m 76.828953,0.57801 c 0.68975,-0.29454 1.51386,-0.25832 1.83137,0.0804 0.3175,0.33882 -0.24684,0.57979 -1.25409,0.53552 l -1.831366,-0.0804 z m 156.64142,-77.46879 c 0.6569,-0.28285 1.73183,-0.28285 2.38873,0 0.65691,0.28285 0.11944,0.51427 -1.19436,0.51427 -1.31381,0 -1.85128,-0.23142 -1.19437,-0.51427 z"
     id="path335" /><path
     style="fill:#ecc66d;stroke-width:0.98703"
     d="m 299.16537,228.71341 c 0.68975,-0.29454 1.51387,-0.25832 1.83137,0.0804 0.3175,0.33882 -0.24684,0.57979 -1.25409,0.53552 l -1.83136,-0.0805 z m 11.40622,-7.11601 c 0.6569,-0.28285 1.73184,-0.28285 2.38874,0 0.6569,0.28286 0.11944,0.51428 -1.19437,0.51428 -1.31381,0 -1.85127,-0.23142 -1.19437,-0.51428 z m 15.28792,-1.0196 c 0.6569,-0.28285 1.73183,-0.28285 2.38873,0 0.65691,0.28285 0.11944,0.51427 -1.19436,0.51427 -1.31381,0 -1.85128,-0.23142 -1.19437,-0.51427 z m -45.62488,-22.83584 c 0,-0.59388 0.42998,-0.79621 0.9555,-0.44963 0.52552,0.34659 0.95549,0.83249 0.95549,1.07978 0,0.2473 -0.42997,0.44963 -0.95549,0.44963 -0.52552,0 -0.9555,-0.4859 -0.9555,-1.07978 z m 35.18268,-7.399 c 1.68889,-1.85942 2.84817,-3.69471 2.57616,-4.07843 -0.272,-0.38371 -0.20187,-0.46183 0.15583,-0.17358 0.3577,0.28824 1.9701,-0.73691 3.58311,-2.27811 1.613,-1.5412 0.36636,0.0583 -2.77033,3.55435 -3.13668,3.49609 -5.90835,6.35652 -6.15927,6.35652 -0.25093,0 0.92559,-1.52134 2.6145,-3.38075 z m -26.58322,-1.08263 c 0,-0.21172 0.75245,-1.01466 1.67211,-1.78431 l 1.67212,-1.39935 -1.31136,1.78431 c -1.24823,1.69841 -2.03287,2.23852 -2.03287,1.39935 z m 11.94368,-13.88952 c 0.95119,-1.12156 1.94441,-2.03921 2.20717,-2.03921 0.26277,0 -0.30049,0.91765 -1.25167,2.03921 -0.95119,1.12157 -1.94442,2.03921 -2.20718,2.03921 -0.26276,0 0.3005,-0.91764 1.25168,-2.03921 z m -27.94614,-7.64704 c 0.0106,-2.24313 0.20628,-3.04072 0.43483,-1.77242 0.22854,1.2683 0.21987,3.10359 -0.0193,4.07842 -0.23915,0.97483 -0.42615,-0.0629 -0.41555,-2.306 z"
     id="path333" /><path
     style="fill:#8eb2d9;stroke-width:0.98703"
     d="m 249.91586,256.23268 c 0.92967,-0.25851 2.21959,-0.24151 2.86648,0.0378 0.6469,0.2793 -0.11373,0.49081 -1.6903,0.47003 -1.57656,-0.0208 -2.10585,-0.24929 -1.17618,-0.50781 z m 18.6251,-0.0146 c 1.18855,-0.24388 2.90844,-0.23462 3.82198,0.0206 0.91354,0.2552 -0.0589,0.45474 -2.161,0.44343 -2.10209,-0.0113 -2.84952,-0.22013 -1.66098,-0.46401 z m 39.22387,-23.4263 c 0.68974,-0.29454 1.51386,-0.25832 1.83136,0.0804 0.31751,0.33882 -0.24684,0.57979 -1.25408,0.53552 l -1.83137,-0.0804 z m 15.28791,0 c 0.68974,-0.29454 1.51387,-0.25832 1.83137,0.0804 0.3175,0.33882 -0.24684,0.57979 -1.25409,0.53552 l -1.83137,-0.0804 z M 38.912107,212.8413 l -2.806375,-3.31372 3.105358,2.99467 c 2.894628,2.79146 3.544553,3.63277 2.806375,3.63277 -0.164441,0 -1.561852,-1.49118 -3.105358,-3.31372 z m 104.507623,1.5976 c 0.68975,-0.29453 1.51386,-0.25831 1.83137,0.0805 0.3175,0.33881 -0.24684,0.57979 -1.25409,0.53552 l -1.83136,-0.0805 z M 10.070587,197.29233 c 0.0106,-2.24313 0.206276,-3.04072 0.434824,-1.77242 0.228548,1.2683 0.219871,3.10359 -0.01928,4.07842 -0.239153,0.97483 -0.426146,-0.0629 -0.415541,-2.306 z m 13.322239,-19.3725 c 0.01947,-1.68235 0.233616,-2.24715 0.475876,-1.25511 0.242259,0.99205 0.226327,2.36851 -0.0354,3.05882 -0.261735,0.69031 -0.459948,-0.12137 -0.440475,-1.80371 z M 199.49533,164.15515 c 0.95119,-1.12157 1.94441,-2.03921 2.20717,-2.03921 0.26276,0 -0.30049,0.91764 -1.25168,2.03921 -0.95118,1.12157 -1.94441,2.03921 -2.20717,2.03921 -0.26276,0 0.30049,-0.91764 1.25168,-2.03921 z M 48.825755,156.3214 c 0.689748,-0.29453 1.513862,-0.25831 1.831366,0.0805 0.317502,0.33881 -0.246837,0.57979 -1.254087,0.53552 l -1.831365,-0.0805 z m 204.416155,-3.03757 c 0.6569,-0.28285 1.73183,-0.28285 2.38873,0 0.65691,0.28285 0.11944,0.51427 -1.19436,0.51427 -1.31381,0 -1.85127,-0.23142 -1.19437,-0.51427 z m 8.13989,-0.0313 c 0.92966,-0.25852 2.21958,-0.24152 2.86648,0.0378 0.6469,0.2793 -0.11373,0.49081 -1.6903,0.47003 -1.57656,-0.0208 -2.10585,-0.24929 -1.17618,-0.50781 z m 14.8517,-29.5585 c 0.68974,-0.29453 1.51387,-0.25831 1.83137,0.0805 0.3175,0.33881 -0.24684,0.57979 -1.25409,0.53552 l -1.83137,-0.0805 z m 13.31721,0.0213 c 0.6569,-0.28286 1.73183,-0.28286 2.38873,0 0.65691,0.28285 0.11944,0.51427 -1.19436,0.51427 -1.31381,0 -1.85128,-0.23142 -1.19437,-0.51427 z"
     id="path331" /><path
     style="fill:#e9bd4f;stroke-width:0.98703"
     d="m 295.97357,228.34759 c -3.16783,-0.44206 -8.43969,-1.54479 -11.71526,-2.45053 -10.11156,-2.79597 -32.70811,-13.53085 -40.81022,-19.38759 -7.06076,-5.10399 -26.27611,-22.38066 -26.27611,-23.62506 0,-0.29847 1.4056,0.38432 3.12355,1.51731 7.6719,5.05964 27.9454,17.47884 28.53301,17.47884 0.35748,0 -2.99385,-7.57057 -7.44741,-16.8235 -4.45356,-9.25292 -7.91602,-16.82349 -7.69435,-16.82349 0.29417,0 20.09881,25.20538 22.36503,28.46399 1.15731,1.66411 0.98374,-2.60377 -0.66004,-16.22872 -1.03894,-8.61159 -1.75047,-15.80524 -1.58118,-15.98589 0.16929,-0.18065 2.63669,7.47117 5.4831,17.00404 2.84641,9.53288 5.40127,17.33301 5.67749,17.33362 0.27621,6.2e-4 1.9961,-9.06061 3.82198,-20.13608 l 3.31977,-20.13721 0.59794,7.13724 c 0.32886,3.92548 0.65134,12.5284 0.71662,19.1176 0.0653,6.5892 0.44116,11.9683 0.8353,11.95354 0.39414,-0.0147 3.51145,-7.08425 6.92734,-15.70998 3.41589,-8.62574 6.3367,-15.55275 6.49066,-15.39336 0.15397,0.15939 -1.43391,7.56092 -3.52863,16.44785 -2.09472,8.88693 -3.66545,16.31078 -3.49052,16.49746 0.33913,0.36188 5.71865,-5.71263 25.07686,-28.31659 0.71648,-0.83661 -2.96796,6.96337 -8.18765,17.33329 -5.21967,10.36993 -9.35357,19.00578 -9.18645,19.19078 0.37906,0.41959 2.36323,-0.9379 19.57958,-13.39555 l 13.85467,-10.02516 -14.32047,15.36569 c -7.87626,8.45113 -13.89588,15.36409 -13.37693,15.36212 0.51896,-0.002 9.32802,-2.92335 19.5757,-6.49197 10.24768,-3.56862 18.71848,-6.419 18.82401,-6.33417 0.10552,0.0848 -7.63399,4.88142 -17.19891,10.65909 l -17.39076,10.50485 13.85467,-0.64047 c 7.62007,-0.35226 16.00454,-0.85502 18.63215,-1.11724 l 4.77747,-0.47677 -15.76566,4.55182 c -8.67112,2.5035 -16.19564,4.51405 -16.72116,4.46788 -0.52552,-0.0462 -3.54735,-0.44563 -6.71519,-0.88768 z"
     id="path329" /><path
     style="fill:#5b93ca;stroke-width:0.98703"
     d="m 245.35908,255.86466 c -24.15017,-2.20176 -48.43987,-11.532 -73.11922,-28.08678 -4.97933,-3.34012 -17.22281,-12.47722 -27.20773,-20.30469 -36.33824,-28.48661 -54.103849,-39.78078 -72.010202,-45.7792 -11.635493,-3.89776 -24.196943,-5.97857 -33.094217,-5.48208 l -7.643958,0.42655 -5.255221,2.80752 c -6.028157,3.22044 -11.745055,8.71706 -14.442087,13.88562 l -1.862159,3.56862 0.576129,-2.54901 c 0.316871,-1.40196 1.896253,-5.49002 3.509738,-9.08459 l 2.933608,-6.53556 5.887399,-6.20951 c 9.505899,-10.02597 20.195994,-15.8737 37.669833,-20.60628 l 9.202549,-2.4924 11.465937,-0.61406 11.465936,-0.61405 8.446595,1.20689 c 10.13666,1.44837 22.54815,5.73074 35.50616,12.25076 12.82691,6.45405 21.54424,12.36096 43.03732,29.16232 24.59818,19.22865 32.23711,24.19077 58.54771,38.03156 23.45682,12.33954 37.61182,18.12294 52.88491,21.60749 10.97715,2.50444 28.20751,3.61484 35.03095,2.25755 l 5.0904,-1.01255 -3.17941,3.54302 c -4.65004,5.18183 -13.98487,12.07389 -19.44278,14.35492 -8.18788,3.42197 -18.35991,5.3579 -33.31556,6.34057 -16.06848,1.05581 -18.36491,1.05037 -30.68263,-0.0726 z M 58.559858,248.27113 c -8.413166,-1.81421 -17.984712,-5.65407 -24.453234,-9.81 C 26.708,233.70762 18.24347,223.76769 14.492208,215.42784 l -3.112547,-6.91985 -0.409101,-8.80897 -0.409101,-8.80897 1.552578,-4.98801 c 1.780584,-5.72053 5.757036,-11.25392 9.957194,-13.85581 l 2.897896,-1.79518 -0.958523,3.70441 -0.958523,3.70441 1.473718,6.96368 c 5.261437,24.86162 23.753612,41.72895 50.287654,45.86907 l 7.876033,1.2289 13.49467,-0.56185 13.494674,-0.56184 6.72537,-2.06722 c 8.95678,-2.75311 14.82636,-5.50978 20.91681,-9.82363 2.77334,-1.96435 5.9012,-3.57155 6.95081,-3.57155 3.12709,0 8.04022,2.18504 7.65878,3.40613 -0.69655,2.22989 -13.42564,11.73033 -22.50613,16.79763 -11.10551,6.19734 -23.43788,10.74711 -34.924031,12.88453 -10.122052,1.88357 -27.320395,1.90626 -35.940581,0.0474 z M 343.77094,183.94939 c -29.07552,-18.32521 -55.71079,-28.63498 -78.82422,-30.51069 -19.58771,-1.58958 -41.66974,5.1393 -59.70222,18.19258 l -5.71676,4.13823 -3.83818,-0.28054 c -2.11101,-0.1543 -4.18874,-0.64101 -4.61718,-1.08159 -0.9994,-1.02771 18.84756,-19.98661 29.1748,-27.86936 15.91966,-12.15143 34.71126,-19.96491 53.25202,-22.14197 21.54331,-2.52963 48.96931,3.6195 72.61253,16.28031 10.08268,5.39921 26.80589,16.9178 26.80589,18.46332 0,0.53459 -4.19407,7.82537 -9.32016,16.20173 l -9.32016,15.22974 z"
     id="path327" /></svg>
