<?xml version="1.0" encoding="UTF-8" standalone="no"?>
<!-- Generator: Adobe Illustrator 26.5.0, SVG Export Plug-In . SVG Version: 6.00 Build 0)  -->

<svg
   version="1.1"
   id="Layer_1"
   x="0px"
   y="0px"
   viewBox="0 0 256.81 256.80999"
   xml:space="preserve"
   sodipodi:docname="ieee_vts.svg"
   inkscape:version="1.2.2 (b0a8486541, 2022-12-01)"
   width="256.81"
   height="256.81"
   xmlns:inkscape="http://www.inkscape.org/namespaces/inkscape"
   xmlns:sodipodi="http://sodipodi.sourceforge.net/DTD/sodipodi-0.dtd"
   xmlns="http://www.w3.org/2000/svg"
   xmlns:svg="http://www.w3.org/2000/svg"><defs
   id="defs95" /><sodipodi:namedview
   id="namedview93"
   pagecolor="#ffffff"
   bordercolor="#000000"
   borderopacity="0.25"
   inkscape:showpageshadow="2"
   inkscape:pageopacity="0.0"
   inkscape:pagecheckerboard="0"
   inkscape:deskcolor="#d1d1d1"
   showgrid="false"
   inkscape:zoom="1.6507457"
   inkscape:cx="321.36992"
   inkscape:cy="76.632036"
   inkscape:window-width="1866"
   inkscape:window-height="1044"
   inkscape:window-x="0"
   inkscape:window-y="0"
   inkscape:window-maximized="1"
   inkscape:current-layer="Layer_1" />
<style
   type="text/css"
   id="style2">
	.st0{fill-rule:evenodd;clip-rule:evenodd;fill:#00609C;}
	.st1{fill:#231F20;}
</style>
<g
   id="g26"
   transform="translate(0,62)">
	<polygon
   class="st0"
   points="43.11,30.49 43.11,32.31 7.38,32.22 7.26,30.42 "
   id="polygon4" />
	<polygon
   class="st0"
   points="253.36,30.4 253.05,32.27 66.04,32.24 66.7,30.5 "
   id="polygon6" />
	<polygon
   class="st0"
   points="252.71,34.1 252.04,37.86 63.54,37.9 65.13,34.2 "
   id="polygon8" />
	<polygon
   class="st0"
   points="7.66,34.14 43.09,34.14 43,37.88 7.97,38 "
   id="polygon10" />
	<polygon
   class="st0"
   points="43,45.15 8.61,45.15 8.23,39.71 43.06,39.81 "
   id="polygon12" />
	<polygon
   class="st0"
   points="251.68,39.67 250.62,45.19 60.28,45.36 62.76,39.76 "
   id="polygon14" />
	<path
   class="st0"
   d="m 8.89,47.01 34.13,0.13 -0.59,39.41 17.15,-39.44 190.72,-0.01 -2.54,14.47 -1,-1.28 c -6.96,-7.88 -18.56,-12.19 -25.35,-6.1 -5.5,6.7 8.91,11.12 14.28,15.74 4.78,4.11 6.48,6.82 7.66,10 0.82,2.2 1.58,4.92 1.01,9.49 -2.47,19.65 -20.1,28.46 -37.76,32.06 -3.1,0.63 -3.03,0.8 -15.09,0.46 -6.94,-0.19 -13.29,-2.06 -19.66,-3.44 l 6.33,-29.09 c 8.05,6.62 18.78,15.13 29.46,6.45 2.25,-4.34 1.07,-5.39 -1.78,-8.76 -1.08,-0.84 -1.9,-1.55 -3.13,-2.36 -4.89,-3.22 -9.5,-5.37 -12.4,-8.72 -3.1,-3.57 -5.35,-7.81 -5.53,-14.36 -0.08,-3.24 1.09,-5.74 1.67,-8.61 H 154.12 L 139.4,120.42 104.75,120.59 119.51,53 91.82,53.02 51.38,120.27 15.8,120.6 Z"
   id="path16" />
	<polygon
   class="st0"
   points="9.4,6 9.4,28.88 7,28.88 7,6 "
   id="polygon18" />
	<polygon
   class="st0"
   points="20.79,25.02 20.79,28.88 11.71,28.88 11.71,6 20.57,6 20.57,9.87 14.12,9.87 14.12,14.94 20.11,14.94 20.11,18.79 14.12,18.79 14.12,25.02 "
   id="polygon20" />
	<polygon
   class="st0"
   points="31.91,25.02 31.91,28.88 22.83,28.88 22.83,6 31.69,6 31.69,9.87 25.24,9.87 25.24,14.94 31.23,14.94 31.23,18.79 25.24,18.79 25.24,25.02 "
   id="polygon22" />
	<polygon
   class="st0"
   points="43.03,25.02 43.03,28.88 33.95,28.88 33.95,6 42.81,6 42.81,9.87 36.36,9.87 36.36,14.94 42.35,14.94 42.35,18.79 36.36,18.79 36.36,25.02 "
   id="polygon24" />
</g>


</svg>
