<?xml version="1.0" standalone="no"?>
<!DOCTYPE svg PUBLIC "-//W3C//DTD SVG 20010904//EN"
 "http://www.w3.org/TR/2001/REC-SVG-20010904/DTD/svg10.dtd">
<svg version="1.0" xmlns="http://www.w3.org/2000/svg"
 width="356.000000pt" height="522.000000pt" viewBox="0 0 356.000000 522.000000"
 preserveAspectRatio="xMidYMid meet">
<metadata>
Created by potrace 1.16, written by Peter Selinger 2001-2019
</metadata>
<g transform="translate(0.000000,522.000000) scale(0.100000,-0.100000)"
fill="#000000" stroke="none">
<path d="M0 5205 c0 -13 204 -15 1780 -15 1576 0 1780 2 1780 15 0 13 -204 15
-1780 15 -1576 0 -1780 -2 -1780 -15z"/>
<path d="M0 5132 c0 -24 4 -27 33 -27 29 0 32 -3 35 -33 3 -29 6 -32 30 -30
24 3 27 -1 30 -30 3 -30 6 -33 30 -30 27 3 27 2 27 -57 0 -59 0 -60 -27 -57
-25 2 -28 -1 -28 -27 0 -26 -4 -30 -32 -33 -29 -3 -33 -6 -33 -33 0 -28 -2
-30 -32 -27 -31 2 -33 0 -33 -28 l0 -30 1764 0 c970 0 1771 -3 1780 -6 13 -5
16 1 16 30 0 34 -1 35 -29 30 -28 -6 -30 -4 -33 27 -3 30 -7 34 -36 37 -30 3
-33 6 -28 28 6 24 4 26 -39 28 -17 1 -20 9 -23 59 l-3 57 31 0 c21 0 30 5 31
18 1 9 2 24 3 32 0 8 11 15 23 15 27 0 35 8 37 37 1 19 7 23 34 23 28 0 32 3
32 27 l0 28 -1780 0 -1780 0 0 -28z m508 -94 l3 -58 -41 0 -40 0 0 -54 0 -55
38 -3 37 -3 0 -55 c0 -55 0 -55 -32 -58 -31 -3 -33 -1 -33 26 0 33 -14 42 -53
35 -25 -5 -27 -3 -27 25 0 28 -3 31 -37 34 l-38 3 0 50 c0 46 2 50 25 52 14 0
31 1 38 2 7 1 12 14 12 31 0 28 2 30 40 30 38 0 40 2 40 31 0 28 2 30 33 27
32 -3 32 -4 35 -60z m162 32 c0 -28 3 -30 35 -30 32 0 35 -2 35 -30 l0 -30 80
0 81 0 -3 27 c-3 25 1 28 32 33 22 3 35 11 36 20 2 38 5 41 32 38 26 -3 27 -6
30 -60 l3 -58 -36 0 -35 0 0 -54 c0 -54 0 -55 33 -58 32 -3 32 -4 35 -61 l3
-58 -33 3 c-29 3 -33 7 -36 34 -3 29 -6 32 -35 30 -29 -1 -32 1 -29 27 l3 27
-80 0 -81 0 0 -30 c0 -28 -2 -30 -32 -28 -30 3 -33 0 -36 -29 -3 -29 -7 -33
-33 -33 -16 0 -29 3 -30 8 0 4 -1 30 -2 57 l-2 50 38 3 37 3 0 55 0 54 -34 0
c-39 0 -43 8 -37 77 3 40 5 43 32 43 26 0 29 -4 29 -30z m995 10 c0 -8 -8 -16
-18 -18 -9 -2 -38 -23 -62 -48 -25 -24 -49 -44 -53 -44 -4 0 -7 -21 -7 -46 0
-39 4 -48 22 -55 12 -4 24 -17 28 -28 3 -12 11 -21 16 -21 16 0 78 -53 73 -62
-3 -4 -33 -8 -68 -8 -54 0 -68 4 -104 31 -43 32 -53 49 -27 49 12 0 15 15 15
75 0 69 -2 75 -20 75 -26 0 -17 18 38 78 40 43 40 43 103 40 49 -2 64 -7 64
-18z m397 -22 c55 -60 64 -78 38 -78 -18 0 -20 -6 -20 -70 0 -60 3 -71 21 -80
19 -11 18 -13 -28 -46 -44 -32 -53 -34 -112 -32 -66 3 -91 20 -50 33 12 4 37
22 55 41 19 18 42 38 52 43 26 14 28 99 4 108 -10 4 -34 24 -54 45 -21 21 -44
38 -52 38 -8 0 -18 5 -21 10 -13 21 8 30 67 30 58 0 62 -2 100 -42z m368 -24
l0 -54 -35 0 -35 0 0 -60 0 -60 35 0 35 0 0 -54 c0 -60 -8 -71 -46 -62 -19 5
-24 13 -24 36 0 26 -3 29 -37 32 -33 3 -38 7 -41 31 -3 25 -7 28 -35 25 l-32
-3 0 55 0 55 33 -3 c28 -3 32 0 32 20 0 34 18 48 51 41 26 -5 29 -3 29 19 0
32 16 46 46 40 22 -4 24 -9 24 -58z m164 51 c3 -8 3 -22 0 -30 -5 -12 3 -15
36 -15 41 0 42 0 35 -30 l-7 -30 81 0 81 0 0 30 c0 28 3 30 35 30 32 0 35 2
35 30 0 26 3 30 29 30 27 0 29 -3 32 -43 6 -69 2 -77 -37 -77 l-34 0 0 -55 c0
-37 4 -55 13 -56 6 -1 23 -2 37 -2 23 -2 25 -5 25 -57 0 -54 0 -55 -32 -58
-29 -3 -32 -1 -35 30 -3 31 -5 33 -35 30 -31 -3 -33 -1 -33 28 l0 31 -77 -3
c-76 -3 -78 -4 -78 -28 0 -22 -4 -25 -32 -23 -29 3 -32 0 -35 -30 -3 -28 -7
-32 -36 -35 l-33 -3 3 58 c3 57 3 58 36 61 32 3 32 4 32 58 l0 54 -35 0 -35 0
0 53 c0 30 3 57 7 60 12 13 51 7 57 -8z m528 -12 c3 -24 8 -28 41 -31 33 -3
37 -6 37 -32 0 -26 4 -29 38 -32 l37 -3 0 -50 0 -50 -37 -3 c-35 -3 -38 -6
-38 -34 0 -28 -2 -30 -28 -25 -37 7 -55 -5 -50 -34 3 -21 -1 -24 -32 -24 l-35
0 0 55 0 55 35 0 35 0 3 57 3 57 -38 3 c-37 3 -38 4 -41 47 -4 59 2 71 37 71
25 0 30 -4 33 -27z m-1920 -10 c2 -22 8 -28 28 -29 47 -2 50 -4 50 -34 0 -28
3 -30 36 -30 l35 0 -3 -52 c-3 -53 -3 -53 -35 -50 -28 3 -32 0 -35 -25 -3 -24
-8 -28 -40 -31 -35 -3 -38 -6 -38 -32 0 -23 -5 -31 -24 -36 -38 -9 -46 2 -46
62 l0 54 35 0 35 0 0 61 0 61 -32 -4 -33 -3 -3 58 -3 57 35 0 c30 0 35 -3 38
-27z m631 -54 c3 -11 15 -23 26 -26 18 -4 21 -13 21 -54 0 -43 -5 -54 -35 -84
-28 -28 -42 -35 -74 -35 -32 0 -44 5 -57 25 -9 14 -23 25 -30 25 -10 0 -14 16
-14 60 0 47 3 60 15 60 9 0 20 11 25 25 9 22 15 25 64 25 46 0 54 -3 59 -21z"/>
<path d="M1773 4633 c-1765 -3 -1773 -3 -1773 -23 0 -20 7 -20 1780 -20 l1780
0 0 25 c0 14 -3 24 -7 23 -5 -2 -806 -4 -1780 -5z"/>
<path d="M1 2828 c0 -953 4 -1751 8 -1773 6 -32 9 -36 16 -21 5 11 3 26 -3 37
-15 23 -16 63 -2 54 6 -3 10 -14 10 -25 0 -18 53 -126 71 -145 12 -12 12 -25
-1 -25 -5 0 -10 7 -10 15 0 8 -4 15 -10 15 -5 0 -10 7 -10 15 0 8 -4 15 -10
15 -5 0 -10 9 -10 20 0 11 -4 20 -10 20 -5 0 -10 -9 -10 -20 0 -11 5 -20 10
-20 6 0 10 -7 10 -15 0 -8 5 -15 10 -15 6 0 10 -7 10 -15 0 -8 5 -15 10 -15 6
0 10 -7 10 -15 0 -8 5 -15 10 -15 6 0 10 -7 10 -15 0 -8 5 -15 10 -15 6 0 10
-7 10 -15 0 -8 5 -15 10 -15 6 0 10 -5 10 -11 0 -16 30 -43 38 -34 4 4 1 10
-5 12 -7 3 -13 11 -13 19 0 8 -4 14 -10 14 -5 0 -10 7 -10 15 0 8 -4 15 -10
15 -5 0 -10 7 -10 15 0 8 -4 15 -10 15 -5 0 -10 5 -10 10 0 19 16 10 33 -20
10 -16 23 -35 30 -42 37 -39 40 -47 26 -65 -11 -13 -11 -17 -1 -20 6 -3 12 -9
12 -15 0 -5 13 -23 30 -38 16 -15 30 -33 30 -39 0 -6 5 -11 11 -11 7 0 9 -9 6
-22 -6 -20 -5 -20 11 -3 13 13 14 19 5 22 -7 3 -13 9 -13 14 0 8 -31 48 -69
86 -7 8 -11 17 -7 20 6 7 25 -13 66 -68 36 -49 239 -252 280 -279 45 -31 64
-50 57 -56 -5 -5 -30 13 -64 45 -7 7 -16 11 -20 8 -7 -7 43 -57 57 -57 5 0 10
-4 10 -10 0 -5 6 -10 13 -10 7 0 19 -9 27 -20 15 -21 40 -27 40 -10 0 6 -5 10
-11 10 -13 0 -43 29 -36 36 6 7 47 -18 47 -28 0 -5 7 -8 15 -8 8 0 15 -4 15
-10 0 -5 7 -10 15 -10 20 0 19 -10 -2 -26 -17 -12 -16 -13 4 -14 12 0 23 5 25
11 3 8 11 8 28 -2 14 -8 27 -17 30 -20 3 -3 20 -12 38 -20 34 -15 42 -29 17
-29 -8 0 -15 5 -15 10 0 6 -9 10 -20 10 -11 0 -20 5 -20 10 0 6 -6 10 -14 10
-8 0 -16 5 -18 12 -3 8 -11 9 -24 3 -18 -8 -18 -9 4 -12 12 -3 22 -9 22 -14 0
-5 7 -9 15 -9 8 0 15 -4 15 -10 0 -5 9 -10 20 -10 11 0 20 -4 20 -10 0 -15 38
-12 43 3 3 9 15 6 46 -10 24 -13 49 -23 57 -23 8 0 14 -4 14 -10 0 -5 -9 -10
-20 -10 -11 0 -20 5 -20 10 0 13 -37 13 -45 0 -4 -6 5 -10 19 -10 14 0 26 -4
26 -10 0 -5 11 -10 25 -10 14 0 25 5 25 10 0 6 9 10 20 10 11 0 20 -4 20 -10
0 -5 -9 -10 -19 -10 -11 0 -23 -5 -26 -10 -4 -6 7 -10 24 -10 17 0 31 5 31 10
0 13 37 13 45 0 3 -5 17 -10 30 -10 13 0 27 -5 30 -10 3 -6 17 -10 30 -10 13
0 27 -4 30 -10 3 -5 21 -10 40 -10 19 0 37 -5 40 -10 3 -6 21 -10 40 -10 19 0
37 -4 40 -10 4 -6 -10 -10 -34 -10 -22 0 -42 -4 -45 -9 -9 -14 159 -20 524
-17 428 3 443 4 435 16 -8 13 -85 13 -85 0 0 -6 -26 -10 -57 -10 -41 0 -54 3
-43 10 8 5 34 10 57 10 23 0 45 4 48 10 3 5 21 10 40 10 19 0 37 5 40 10 3 6
19 10 35 10 16 0 32 5 35 10 3 6 17 10 30 10 13 0 27 5 30 10 3 6 15 10 26 10
10 0 27 4 37 9 64 33 73 35 81 22 5 -7 19 -11 32 -8 l24 4 -22 8 c-28 9 -30
25 -3 25 11 0 20 5 20 10 0 6 9 10 20 10 11 0 20 5 20 10 0 6 7 10 15 10 8 0
15 -4 15 -10 0 -5 9 -10 20 -10 11 0 20 5 20 10 0 6 9 10 21 10 11 0 17 4 14
10 -3 6 4 10 16 10 15 0 20 3 13 10 -11 11 -64 -8 -64 -22 0 -5 -7 -8 -15 -8
-27 0 -16 16 20 30 19 8 35 17 35 22 0 4 7 8 15 8 8 0 15 5 15 10 0 6 7 10 15
10 8 0 15 5 15 10 0 6 7 10 15 10 8 0 15 3 15 8 0 4 9 13 21 20 17 11 23 11
36 0 13 -10 17 -10 20 0 3 6 10 12 17 12 6 0 18 9 26 20 8 11 21 20 29 20 12
0 12 3 3 12 -9 9 -16 6 -30 -10 -11 -12 -24 -22 -30 -22 -6 0 -12 -6 -15 -12
-2 -7 -8 -10 -12 -6 -9 8 7 25 55 58 42 28 275 260 312 310 14 19 36 46 48 60
12 14 29 37 38 52 16 28 32 37 32 18 0 -5 -4 -10 -10 -10 -5 0 -10 -6 -10 -14
0 -8 -6 -16 -12 -19 -10 -4 -10 -7 -1 -18 11 -11 13 -10 13 4 0 9 5 17 10 17
6 0 10 7 10 15 0 8 5 15 10 15 6 0 10 7 10 15 0 8 5 15 10 15 6 0 10 7 10 16
0 8 5 12 10 9 6 -3 10 3 10 14 0 12 5 21 10 21 6 0 10 7 10 16 0 8 5 12 10 9
6 -3 10 3 10 14 0 12 5 21 10 21 14 0 12 37 -2 43 -10 3 -10 9 0 26 6 11 12
28 12 36 0 23 17 18 25 -7 6 -21 8 -20 15 12 5 19 9 806 10 1748 l0 1712
-1780 0 -1780 0 1 -1732z m2962 1685 c-266 -2 -700 -2 -965 0 -266 1 -49 2
482 2 531 0 748 -1 483 -2z m561 -54 c3 -3 5 -673 4 -1488 l-3 -1483 -87 104
c-47 56 -115 138 -150 180 -35 42 -68 77 -74 77 -9 1 -364 -418 -372 -440 -7
-18 -29 -8 -52 24 -13 17 -58 73 -100 122 -41 50 -115 138 -164 197 l-87 108
-181 -215 c-99 -118 -183 -215 -187 -215 -4 0 -86 94 -182 210 -96 115 -179
210 -185 210 -7 0 -19 -11 -28 -26 -10 -14 -38 -49 -64 -78 -26 -29 -92 -107
-146 -173 l-100 -121 -20 26 c-25 33 -158 192 -245 292 -35 41 -69 76 -75 77
-6 1 -85 -86 -175 -193 -90 -107 -168 -193 -172 -192 -4 2 -80 91 -169 198
-90 107 -164 196 -166 198 -1 2 -67 -82 -145 -187 -79 -105 -146 -191 -149
-191 -3 0 -5 673 -5 1496 l0 1496 1737 -3 c955 -2 1739 -7 1742 -10z m-3094
-2901 c36 -44 84 -105 108 -134 l43 -53 -66 -85 c-70 -92 -78 -112 -42 -102
12 3 65 6 117 6 l95 0 155 192 c85 105 164 202 175 215 l20 25 88 -116 c48
-64 90 -123 93 -131 3 -8 -21 -49 -55 -94 -61 -80 -74 -108 -45 -97 9 3 69 6
134 6 l119 0 173 216 173 215 20 -24 c11 -13 97 -116 192 -229 l171 -205 69
-6 c99 -10 173 -8 173 3 0 5 -17 36 -37 67 -45 69 -63 102 -63 114 0 5 46 70
102 145 80 107 104 132 113 122 6 -7 90 -107 185 -223 95 -115 176 -214 180
-218 12 -14 260 -20 260 -7 0 6 -21 40 -46 76 -25 35 -44 70 -41 78 7 18 217
300 226 304 3 1 14 -11 24 -27 9 -15 69 -99 133 -186 l117 -158 -18 -56 c-18
-61 -73 -167 -111 -218 l-25 -33 -1558 0 -1559 0 -30 48 c-42 67 -103 208
-109 252 -5 36 2 47 114 196 66 88 126 169 134 182 8 12 18 22 24 22 5 0 39
-37 75 -82z m2870 -676 c0 -2 -24 -35 -53 -75 -72 -97 -151 -181 -193 -208
l-35 -22 -1244 5 c-1152 4 -1245 6 -1269 21 -45 30 -131 121 -185 198 l-52 74
48 5 c51 5 2983 7 2983 2z"/>
<path d="M310 3264 c0 -701 3 -1029 11 -1059 6 -23 23 -58 39 -76 l28 -34 215
0 c214 0 216 0 241 24 14 13 35 43 46 66 20 41 20 60 20 1068 l0 1027 -100 0
-100 0 0 -1005 0 -1005 -95 0 -95 0 0 1005 0 1005 -105 0 -105 0 0 -1016z"/>
<path d="M1145 4258 c-3 -13 -5 -504 -3 -1093 l3 -1070 93 -3 94 -3 -4 551
c-1 302 0 550 4 550 4 0 10 -17 13 -37 4 -21 53 -267 108 -548 l102 -510 80 0
80 0 0 1090 0 1090 -85 0 -85 0 3 -635 c2 -629 -1 -699 -29 -535 -6 38 -22
122 -36 185 -46 218 -104 496 -153 733 -28 132 -52 243 -56 248 -3 5 -32 9
-64 9 -53 0 -60 -2 -65 -22z"/>
<path d="M1920 3185 l0 -1096 96 3 95 3 2 395 2 395 52 0 c59 -1 94 -21 131
-75 22 -33 22 -37 22 -376 l0 -344 100 0 100 0 0 343 c0 383 -1 387 -73 456
l-36 34 37 36 c76 74 73 45 70 659 l-3 548 -24 35 c-51 74 -48 74 -323 77
l-248 3 0 -1096z m381 875 c18 -23 19 -55 19 -484 1 -368 -1 -461 -12 -467 -7
-5 -55 -9 -105 -9 l-93 0 0 495 0 496 86 -3 c79 -3 89 -5 105 -28z"/>
<path d="M2760 4267 c-51 -26 -50 10 -50 -1090 l0 -1029 29 -29 c16 -16 40
-29 53 -30 13 -1 106 -2 207 -3 273 -3 270 -7 270 277 l1 177 -85 0 c-81 0
-85 -1 -86 -22 0 -13 0 -77 0 -143 1 -66 -2 -126 -7 -133 -6 -9 -34 -12 -103
-10 l-94 3 -2 935 c-2 514 1 940 5 947 8 13 171 21 190 9 10 -6 12 -45 10
-159 l-3 -152 85 0 85 0 3 165 c3 188 -6 238 -50 275 -29 25 -31 25 -231 25
-142 0 -209 -4 -227 -13z"/>
</g>
</svg>
